<?xml version="1.0" encoding="utf-8"?>
<!-- Generator: Adobe Illustrator 16.0.0, SVG Export Plug-In . SVG Version: 6.00 Build 0)  -->
<!DOCTYPE svg PUBLIC "-//W3C//DTD SVG 1.1//EN" "http://www.w3.org/Graphics/SVG/1.1/DTD/svg11.dtd">
<svg version="1.1" id="Layer_1" xmlns="http://www.w3.org/2000/svg" xmlns:xlink="http://www.w3.org/1999/xlink" x="0px" y="0px"
	 width="512px" height="512px" viewBox="0 0 512 512" enable-background="new 0 0 512 512" xml:space="preserve">
<g>
	<defs>
		<rect id="SVGID_1_" width="512" height="512"/>
	</defs>
	<clipPath id="SVGID_2_">
		<use xlink:href="#SVGID_1_"  overflow="visible"/>
	</clipPath>
	<path clip-path="url(#SVGID_2_)" fill-rule="evenodd" clip-rule="evenodd" fill="#333333" d="M256,402.416
		c-80.842,0-146.612-65.682-146.612-146.416c0-80.734,65.77-146.416,146.612-146.416S402.611,175.266,402.611,256
		C402.611,336.734,336.842,402.416,256,402.416 M379.646,276.043c-4.284-1.352-38.763-11.62-78.004-5.346
		c16.379,44.948,23.045,81.559,24.328,89.167C354.064,340.893,374.063,310.84,379.646,276.043 M304.917,371.313
		c-1.862-10.973-9.134-49.213-26.715-94.839c-0.274,0.094-0.551,0.184-0.826,0.279c-70.634,24.58-95.989,73.498-98.243,78.098
		c21.233,16.536,47.917,26.401,76.867,26.401C273.348,381.253,289.881,377.71,304.917,371.313 M162.964,339.811
		c2.837-4.849,37.206-61.679,101.791-82.527c1.633-0.527,3.278-1.022,4.936-1.487c-3.145-7.105-6.568-14.218-10.153-21.225
		C197,253.263,136.314,252.482,130.835,252.37c-0.039,1.269-0.064,2.542-0.064,3.821
		C130.771,288.312,142.963,317.64,162.964,339.811 M133.417,230.577c5.601,0.074,57.195,0.297,115.773-15.238
		c-20.75-36.836-43.128-67.805-46.43-72.327C167.724,159.515,141.536,191.769,133.417,230.577 M226.654,134.606
		c3.461,4.628,26.206,35.56,46.726,73.212c44.53-16.668,63.382-41.972,65.634-45.175c-22.114-19.594-51.194-31.514-83.014-31.514
		C245.896,131.129,236.071,132.339,226.654,134.606 M352.936,177.105c-2.641,3.566-23.625,30.432-69.926,49.31
		c2.912,5.957,5.706,12.016,8.308,18.115c0.921,2.162,1.819,4.313,2.697,6.454c41.669-5.233,83.07,3.154,87.199,4.026
		C380.938,225.491,370.376,198.386,352.936,177.105"/>
</g>
</svg>
