<?xml version="1.0" encoding="utf-8"?>
<!-- Generator: Adobe Illustrator 16.0.0, SVG Export Plug-In . SVG Version: 6.00 Build 0)  -->
<!DOCTYPE svg PUBLIC "-//W3C//DTD SVG 1.1//EN" "http://www.w3.org/Graphics/SVG/1.1/DTD/svg11.dtd">
<svg version="1.1" id="Layer_1" xmlns="http://www.w3.org/2000/svg" xmlns:xlink="http://www.w3.org/1999/xlink" x="0px" y="0px"
	 width="90px" height="90px" viewBox="211 211 90 90" enable-background="new 211 211 90 90" xml:space="preserve">
<path fill="#1ABC9C" stroke="#1ABC9C" stroke-miterlimit="10" d="M256,277.69c-11.976,0-21.719-9.73-21.719-21.69
	s9.743-21.69,21.719-21.69c11.977,0,21.719,9.73,21.719,21.69S267.977,277.69,256,277.69 M274.318,258.97
	c-0.637-0.201-5.742-1.722-11.557-0.792c2.426,6.657,3.414,12.083,3.604,13.209C270.527,268.577,273.49,264.124,274.318,258.97
	 M263.246,273.083c-0.275-1.626-1.354-7.291-3.957-14.05c-0.041,0.013-0.082,0.027-0.121,0.041
	c-10.465,3.642-14.221,10.889-14.555,11.569c3.146,2.45,7.099,3.912,11.387,3.912C258.57,274.556,261.02,274.031,263.246,273.083
	 M242.217,268.416c0.42-0.718,5.512-9.138,15.081-12.226c0.241-0.078,0.485-0.152,0.731-0.222c-0.467-1.051-0.973-2.104-1.505-3.143
	c-9.265,2.769-18.255,2.653-19.067,2.637c-0.006,0.187-0.009,0.375-0.009,0.566C237.448,260.786,239.254,265.131,242.217,268.416
	 M237.84,252.234c0.83,0.01,8.473,0.043,17.151-2.258c-3.075-5.457-6.39-10.044-6.878-10.715
	C242.923,241.706,239.043,246.485,237.84,252.234 M251.653,238.017c0.513,0.686,3.882,5.268,6.921,10.845
	c6.598-2.469,9.391-6.218,9.723-6.692c-3.275-2.902-7.582-4.668-12.297-4.668C254.504,237.501,253.048,237.681,251.653,238.017
	 M270.359,244.313c-0.391,0.528-3.498,4.508-10.357,7.305c0.432,0.882,0.844,1.779,1.23,2.682c0.135,0.321,0.27,0.64,0.4,0.957
	c6.172-0.775,12.305,0.467,12.918,0.596C274.508,251.48,272.945,247.464,270.359,244.313"/>
</svg>
